<svg xmlns="http://www.w3.org/2000/svg" viewBox="0 0 23 23"><path d="M1 22l5.517-1.449c1.519.83 3.23 1.266 4.974 1.266h.004C17.228 21.817 22 17.148 22 11.411c0-2.78-1.181-5.39-3.145-7.36A10.328 10.328 0 0011.495 1C5.758 1 1.09 5.669 1.09 11.406c0 1.833.478 3.624 1.388 5.203L1 22zm10.495-1.936a8.634 8.634 0 01-4.406-1.205l-.314-.187-3.272.858.872-3.193-.206-.328a8.62 8.62 0 01-1.322-4.603c0-4.767 3.881-8.648 8.653-8.648 2.31 0 4.481.9 6.112 2.536 1.632 1.636 2.635 3.806 2.63 6.117 0 4.772-3.98 8.653-8.747 8.653zm3.333-3.694c.502-.075 1.538-.628 1.753-1.237.216-.61.216-1.13.15-1.238-.06-.117-.234-.183-.492-.31-.258-.13-1.537-.758-1.777-.843-.239-.089-.412-.131-.585.131-.174.263-.67.844-.825 1.022-.15.174-.305.197-.563.066-1.528-.764-2.531-1.364-3.539-3.094-.267-.46.267-.426.764-1.42.084-.174.042-.324-.023-.455-.066-.131-.586-1.41-.802-1.931-.21-.506-.427-.436-.586-.445-.15-.01-.323-.01-.497-.01a.963.963 0 00-.693.324c-.24.262-.91.89-.91 2.17 0 1.28.933 2.517 1.06 2.69.13.174 1.832 2.799 4.443 3.929 1.65.712 2.297.773 3.122.651z"/></svg>