<svg xmlns="http://www.w3.org/2000/svg" viewBox="0 0 18 14"><path d="M9 9c.725.013 1.769-.912 2.294-1.294 4.147-3.01 4.462-3.272 5.418-4.022a.748.748 0 00.288-.59V2.5A1.5 1.5 0 0015.5 1h-13A1.5 1.5 0 001 2.5v.594c0 .231.106.447.288.59.956.747 1.271 1.013 5.418 4.022C7.231 8.088 8.275 9.013 9 9zm6.5 4a1.5 1.5 0 001.5-1.5V5.11a.188.188 0 00-.303-.147c-.7.543-1.625 1.237-4.813 3.553-.634.462-1.768 1.497-2.884 1.487-1.11.006-2.222-1.006-2.881-1.487C2.93 6.2 2.003 5.509 1.303 4.966A.187.187 0 001 5.113V11.5A1.5 1.5 0 002.5 13h13z"/></svg>