<svg xmlns="http://www.w3.org/2000/svg" viewBox="0 0 25 25"><path d="M8.053 22.25c9.046 0 13.995-7.495 13.995-14 0-.214 0-.427-.015-.64.96-.701 1.797-1.57 2.467-2.544a9.858 9.858 0 01-2.832.761 4.907 4.907 0 002.162-2.711 9.681 9.681 0 01-3.122 1.188 4.906 4.906 0 00-3.594-1.554 4.918 4.918 0 00-4.919 4.92c0 .382.046.762.122 1.128a13.98 13.98 0 01-10.142-5.15 4.885 4.885 0 00-.67 2.484c0 1.706.868 3.214 2.193 4.098a4.952 4.952 0 01-2.223-.624v.06a4.92 4.92 0 003.944 4.83 5.2 5.2 0 01-1.295.167c-.32 0-.624-.03-.929-.076A4.928 4.928 0 007.795 18a9.849 9.849 0 01-6.107 2.102c-.411 0-.792-.015-1.188-.06a13.896 13.896 0 007.553 2.208z"/></svg>