<svg xmlns="http://www.w3.org/2000/svg" viewBox="0 0 54 54"><circle cx="27" cy="27" r="27" fill="#2d2d5d"/><path fill="#fff" d="M42.3 24.36a15.82 15.82 0 01-2.58 9.075l-.334.488a19.05 19.05 0 01-1.886 2.272l-.075.105a1.71 1.71 0 01-.165.165 19.5 19.5 0 01-5.13 3.765l-1.92.9v-4.785a7.5 7.5 0 00-2.31-5.43 21.33 21.33 0 012.415-1.38 10.2 10.2 0 012.595 6.81v.27a18 18 0 002.505-2.115c.46-.474.9-.975 1.3-1.5a14.22 14.22 0 00-3.15-5.295 14.4 14.4 0 001.5-.9 11.44 11.44 0 00.795-.645c.474.53.92 1.087 1.335 1.665A16.38 16.38 0 0138.5 30.03a12.987 12.987 0 001.1-5.67zm-4.7-7.74a7.92 7.92 0 01-2.535 8.76l-.237.198-.483.372c-.5.366-1.04.702-1.6 1.005-.66.405-1.44.765-2.16 1.125l-1.065.525-.51.267c-.672.367-1.32.78-1.936 1.233h.06a6.18 6.18 0 00-.6.495A7.5 7.5 0 0024 36.24V41l-1.92-.9a19.5 19.5 0 01-4.5-3.105 16.86 16.86 0 01.585-3.24 18.45 18.45 0 003.075 2.73v-.27a10.157 10.157 0 013.4-7.605l-1.065-.525-1.3-.66 2.16-1.935.33.2 2.325 1.2 2.3-1.2 1.3-.645-2.775-2.25 2.1-1.77L33.1 23.58a5.34 5.34 0 001.965-6zm8.9 12.945c.105 2.82-.33 6.675-3.375 9.105a8.07 8.07 0 01-3.99 1.62l-1.5.12V37.6l.48-.465a22.41 22.41 0 001.92-2.25c.13.755.22 1.516.27 2.28a5.22 5.22 0 001.275-.75c1.68-1.335 2.43-3.585 2.235-6.66zM27 8.235l2.5 1.5a6.57 6.57 0 012.505 4.755 7.86 7.86 0 01-2.79 5.76l-.453.36-1.692 1.47-.675.54-3 2.385-.446.387-1.67 1.533-.324.308a15 15 0 00-3.591 5.557l-.154.528c-.242.884-.41 1.786-.506 2.697l-.066.568-.13 2.282v1.5l-1.5-.12a8.07 8.07 0 01-4.005-1.575c-3.12-2.325-3.555-6.18-3.375-9l2.685.18c-.195 3.135.585 5.4 2.325 6.735a5.37 5.37 0 001.185.675 19.62 19.62 0 01.63-3.9 15.725 15.725 0 01-2.475-8.9h2.7c-.05 1.884.31 3.757 1.05 5.5a17.22 17.22 0 011.215-2.025 21.27 21.27 0 012.13-2.52 7.966 7.966 0 01-2.445-8.7l2.52.96a5.34 5.34 0 001.905 5.88l3.9-3.225a7.817 7.817 0 01-2.76-5.73A6.72 6.72 0 0124.9 9.735l2.1-1.5zm.03 3.225l-.675.465a3.9 3.9 0 00-1.5 2.745h-.015A5.749 5.749 0 0027 18.555a5.887 5.887 0 002.2-4.02 3.66 3.66 0 00-1.365-2.595l-.795-.48z"/></svg>