<svg xmlns="http://www.w3.org/2000/svg" viewBox="0 0 202 54"><circle cx="27" cy="27" r="27" fill="#fff"/><path fill="#2d2d5d" d="M42.3 24.36a15.82 15.82 0 01-2.58 9.075l-.334.488a19.05 19.05 0 01-1.886 2.272l-.075.105a1.71 1.71 0 01-.165.165 19.5 19.5 0 01-5.13 3.765l-1.92.9v-4.785a7.5 7.5 0 00-2.31-5.43 21.33 21.33 0 012.415-1.38 10.2 10.2 0 012.595 6.81v.27a18 18 0 002.505-2.115c.46-.474.9-.975 1.3-1.5a14.22 14.22 0 00-3.15-5.295 14.4 14.4 0 001.5-.9 11.44 11.44 0 00.795-.645c.474.53.92 1.087 1.335 1.665A16.38 16.38 0 0138.5 30.03a12.987 12.987 0 001.1-5.67zm-4.7-7.74a7.92 7.92 0 01-2.535 8.76l-.237.198-.483.372c-.5.366-1.04.702-1.6 1.005-.66.405-1.44.765-2.16 1.125l-1.065.525-.51.267c-.672.367-1.32.78-1.936 1.233h.06a6.18 6.18 0 00-.6.495A7.5 7.5 0 0024 36.24V41l-1.92-.9a19.5 19.5 0 01-4.5-3.105 16.86 16.86 0 01.585-3.24 18.45 18.45 0 003.075 2.73v-.27a10.157 10.157 0 013.4-7.605l-1.065-.525-1.3-.66 2.16-1.935.33.2 2.325 1.2 2.3-1.2 1.3-.645-2.775-2.25 2.1-1.77L33.1 23.58a5.34 5.34 0 001.965-6zm8.9 12.945c.105 2.82-.33 6.675-3.375 9.105a8.07 8.07 0 01-3.99 1.62l-1.5.12V37.6l.48-.465a22.41 22.41 0 001.92-2.25c.13.755.22 1.516.27 2.28a5.22 5.22 0 001.275-.75c1.68-1.335 2.43-3.585 2.235-6.66zM27 8.235l2.5 1.5a6.57 6.57 0 012.505 4.755 7.86 7.86 0 01-2.79 5.76l-.453.36-1.692 1.47-.675.54-3 2.385-.446.387-1.67 1.533-.324.308a15 15 0 00-3.591 5.557l-.154.528c-.242.884-.41 1.786-.506 2.697l-.066.568-.13 2.282v1.5l-1.5-.12a8.07 8.07 0 01-4.005-1.575c-3.12-2.325-3.555-6.18-3.375-9l2.685.18c-.195 3.135.585 5.4 2.325 6.735a5.37 5.37 0 001.185.675 19.62 19.62 0 01.63-3.9 15.725 15.725 0 01-2.475-8.9h2.7c-.05 1.884.31 3.757 1.05 5.5a17.22 17.22 0 011.215-2.025 21.27 21.27 0 012.13-2.52 7.966 7.966 0 01-2.445-8.7l2.52.96a5.34 5.34 0 001.905 5.88l3.9-3.225a7.817 7.817 0 01-2.76-5.73A6.72 6.72 0 0124.9 9.735l2.1-1.5zm.03 3.225l-.675.465a3.9 3.9 0 00-1.5 2.745h-.015A5.749 5.749 0 0027 18.555a5.887 5.887 0 002.2-4.02 3.66 3.66 0 00-1.365-2.595l-.795-.48z"/><path fill="#fff" d="M78.576 29.141h-1.152c-.262 1.78-.89 3.561-1.57 4.425-.813 1.022-2.331 1.52-4.53 1.52h-1.1c-.786 0-1.44-.158-1.677-.394-.183-.157-.21-.314-.21-.864V19.871c0-1.1.237-1.23 2.358-1.23h.471V17.41h-8.589v1.23h.471c2.121 0 2.357.132 2.357 1.231v13.984c0 1.1-.236 1.23-2.357 1.23h-.47v1.23h15.449zM89.05 17.043h-1.1L81.927 32.31c-.523 1.362-.628 1.545-1.02 1.964-.42.498-1.153.812-1.86.812h-.105v1.23h6.94v-1.23h-.524c-1.414 0-2.121-.497-2.121-1.492 0-.315.078-.681.235-1.1l.864-2.305h6.94l1.414 3.51c.157.392.209.575.209.706 0 .42-.655.681-1.623.681h-1.1v1.23h8.117v-1.23h-.366c-1.31 0-1.598-.21-2.2-1.676zm-1.283 4.295l2.959 7.436H84.86zm16.199-3.928h-5.394v1.23h.655c1.335 0 1.938.21 2.409.865v11.129c0 3.587-.524 4.346-3.038 4.451v1.23h7.463v-1.23c-2.487-.105-3.011-.864-3.011-4.451v-9.715l11.679 15.763h1.1v-13.59c0-3.587.523-4.347 3.037-4.451V17.41h-7.463v1.23c2.488.105 3.011.865 3.011 4.452v8.222zm19.023 15.685v.76c0 1.1-.236 1.23-2.33 1.23h-.498v1.23h8.798c2.33 0 4.111-.366 5.5-1.151 2.644-1.493 4.11-4.478 4.11-8.406 0-3.587-1.309-6.441-3.718-8.013-1.44-.916-3.378-1.335-6.363-1.335h-8.327v1.23h.497c2.095 0 2.33.132 2.33 1.231v.76zm4.425 1.99c-1.309 0-1.492-.157-1.492-1.44V20.107c0-1.283.183-1.466 1.492-1.466h1.362c4.478 0 6.337 2.435 6.337 8.222 0 5.865-1.702 8.222-5.918 8.222zm19.151-14.455v-.759c0-1.1.235-1.23 2.33-1.23h.524V17.41h-8.667v1.23h.523c2.121 0 2.357.132 2.357 1.231v13.984c0 1.1-.236 1.23-2.357 1.23h-.523v1.23h8.667v-1.23h-.524c-2.095 0-2.33-.13-2.33-1.23v-.76zm9.721-3.22h-5.394v1.23h.655c1.335 0 1.937.21 2.409.865v11.129c0 3.587-.524 4.346-3.038 4.451v1.23h7.463v-1.23c-2.488-.105-3.011-.864-3.011-4.451v-9.715l11.678 15.763h1.1v-13.59c0-3.587.524-4.347 3.038-4.451V17.41h-7.463v1.23c2.487.105 3.011.865 3.011 4.452v8.222zm32.456-.183h-.995l-1.022 1.597c-1.702-1.362-2.854-1.807-4.765-1.807-2.069 0-3.692.576-5.342 1.912-2.592 2.095-3.797 4.74-3.797 8.274 0 2.671.786 4.897 2.304 6.599 1.624 1.833 4.033 2.907 6.547 2.907 2.2 0 3.744-.681 5.446-2.383l.97 2.356h1.099v-5.76c0-1.414 0-1.44.157-1.624.236-.262.786-.366 2.2-.366h.392V27.7h-8.327v1.23h.498c2.2 0 2.383.131 2.383 1.572 0 1.126-.21 2.173-.524 2.801-.655 1.284-2.33 2.174-4.032 2.174-1.676 0-3.378-.864-4.269-2.174-.969-1.44-1.388-3.299-1.388-6.1 0-5.84 1.938-8.956 5.578-8.956 2.985 0 5.054 2.147 6.127 6.337h1.126z"/></svg>
