<svg xmlns="http://www.w3.org/2000/svg" data-name="Layer 1" viewBox="0 0 360 73"><path fill="#e3e3f2" fill-rule="evenodd" d="M0 0h360v64H0z"/><path fill="#2d2d5d" d="M111.13 38V23.88h-4.52V26h2.12v12zm7.6 0a4.34 4.34 0 004-1.92 9.92 9.92 0 001.2-5.28 9.81 9.81 0 00-1.2-5.25 5.16 5.16 0 00-8 0 9.82 9.82 0 00-1.2 5.26 10 10 0 001.2 5.3 4.33 4.33 0 004 1.9zm0-2.16a2.32 2.32 0 01-2.34-1.3 9.21 9.21 0 01-.6-3.74 9 9 0 01.6-3.7 2.33 2.33 0 012.34-1.28 2.3 2.3 0 012.32 1.3 9.09 9.09 0 01.6 3.7 9.21 9.21 0 01-.6 3.74 2.3 2.3 0 01-2.32 1.3zM135.1 38v-3h2v-2h-2v-9.2h-2.44l-7 9.28V35h7.16v3zm-2.1-5h-5l5-6.48z"/><path fill="#2d2d5d" fill-rule="evenodd" d="M146 29h10v2h-10z"/><path fill="#2d2d5d" d="M176.42 31.75v-.91a9 9 0 01.6-3.7 2.33 2.33 0 012.34-1.28 2.39 2.39 0 012.07.91l1.57-1.61a4.54 4.54 0 00-3.69-1.47 4.35 4.35 0 00-4 1.9 9.82 9.82 0 00-1.2 5.26 14.23 14.23 0 00.28 2.91zM172.13 36h-6.48a19.31 19.31 0 003-2.3 13.2 13.2 0 002.41-2.91 6 6 0 00.95-3.12 3.92 3.92 0 00-1.17-3 4.58 4.58 0 00-3.23-1.1 4.83 4.83 0 00-3.45 1.28 5.34 5.34 0 00-1.5 3.7h2.22a4 4 0 01.7-2.25 2.19 2.19 0 011.84-.8 2 2 0 011.7.64 2.69 2.69 0 01.53 1.72 6.14 6.14 0 01-1.95 4 29.83 29.83 0 01-5.2 4.35v1.68h7.77zm10.1-4.4a8.25 8.25 0 01-.58 3 2.3 2.3 0 01-2.32 1.3 3.11 3.11 0 01-1.16-.22l-1.68 1.68a5.24 5.24 0 002.84.71 4.34 4.34 0 004-1.92 9.92 9.92 0 001.2-5.28c0-.52 0-1-.07-1.47zM195.7 33v-9.2h-2.44l-7 9.28V35h7.16v3h2.3v-3h2v-2zm-2.14 0h-5l5-6.48zm-2.27-14.71l1.42 1.42-24 24-1.42-1.42z"/><path fill="#2d2d5d" fill-rule="evenodd" d="M204 29h10v2h-10z"/><path fill="#2d2d5d" d="M225.6 38.14A4.79 4.79 0 00229 37a3.76 3.76 0 001.18-2.9 3.15 3.15 0 00-.83-2.3 5.12 5.12 0 00-2.3-1.25v-.1a3.17 3.17 0 002.1-1.07 3.34 3.34 0 00.75-2.23 3.8 3.8 0 00-.5-1.92 3.47 3.47 0 00-1.5-1.35 5.35 5.35 0 00-2.4-.5 5 5 0 00-3.5 1.19 4.58 4.58 0 00-1.4 3.23h2.24a2.79 2.79 0 01.84-1.83 2.47 2.47 0 011.74-.63 2.33 2.33 0 011.64.56 2 2 0 01.6 1.54c0 1.51-1.09 2.25-3.26 2.22h-.54v1.88h.54a4.69 4.69 0 012.63.62 2 2 0 01.9 1.8 2.11 2.11 0 01-.63 1.6 2.49 2.49 0 01-1.8.62 2.82 2.82 0 01-2-.7 2.91 2.91 0 01-.86-1.9h-2.26A4.71 4.71 0 00222 37a5.53 5.53 0 003.64 1.15zm12-.1a4.34 4.34 0 004-1.92 9.92 9.92 0 001.2-5.28 9.81 9.81 0 00-1.2-5.25 5.16 5.16 0 00-8 0 9.82 9.82 0 00-1.2 5.26 10 10 0 001.2 5.3 4.33 4.33 0 004 1.9zm0-2.16a2.32 2.32 0 01-2.34-1.3 9.21 9.21 0 01-.6-3.74 9 9 0 01.6-3.7 2.33 2.33 0 012.34-1.28 2.3 2.3 0 012.32 1.3 9.09 9.09 0 01.6 3.7 9.21 9.21 0 01-.6 3.74 2.3 2.3 0 01-2.32 1.3zM254 38v-3h2v-2h-2v-9.2h-2.44l-7 9.28V35h7.16v3zm-2.14-5h-5l5-6.48zM183 44.22l22.4 9.86a1 1 0 01.6.89V73h-52V55a.94.94 0 01.49-.83l.11-.06 22.4-9.89a2.58 2.58 0 00.25 1L155 55h50l-22.25-9.8a3.06 3.06 0 00.24-1zM205 56h-50v16h50zm-25-14a2 2 0 11-2 2 2 2 0 012-2z"/><path fill="none" d="M155 56h50v16h-50z"/><path fill="#2d2d5d" d="M161.71 67l2-7.11h-1.6L161 65.05l-1.19-5.16h-1.59l2 7.11zm7.8 0v-1.19h-2.65v-1.89h2.24v-1.15h-2.24v-1.68h2.64v-1.2h-4.07V67zm3.26 0v-4.66l2.1 4.66h1.44v-7.11h-1.43v4.67l-2.11-4.67h-1.43V67zm7.53 0a2.67 2.67 0 002-.8 3.11 3.11 0 00.74-2.2v-1.15a3.08 3.08 0 00-.76-2.17 2.56 2.56 0 00-2-.79h-1.88V67zm0-1.19h-.43v-4.72h.52a1.11 1.11 0 011 .41 2.49 2.49 0 01.28 1.39v1.24a2.21 2.21 0 01-.31 1.3 1.2 1.2 0 01-1 .38zm6.3 1.19v-7.11h-1.43V67zm4.05 0a2.64 2.64 0 002-.8 3.07 3.07 0 00.74-2.2v-1.15a3.12 3.12 0 00-.75-2.17 2.6 2.6 0 00-2-.79h-1.88V67zm0-1.19h-.43v-4.72h.52a1.14 1.14 0 01.95.41 2.6 2.6 0 01.27 1.39v1.24a2.3 2.3 0 01-.3 1.3 1.23 1.23 0 01-1 .38zm7.23 1.29a2.33 2.33 0 001.88-.79 3.33 3.33 0 00.67-2.22v-1.22a3.4 3.4 0 00-.69-2.27 2.55 2.55 0 00-3.75 0 3.45 3.45 0 00-.68 2.28v1.22a3.24 3.24 0 00.69 2.2 2.36 2.36 0 001.88.78zm0-1.2a.93.93 0 01-.86-.44 2.57 2.57 0 01-.28-1.37v-1.27a2.75 2.75 0 01.29-1.38.91.91 0 01.84-.45.92.92 0 01.85.47 3 3 0 01.27 1.43v1.24a2.61 2.61 0 01-.27 1.34.93.93 0 01-.84.43z"/></svg>