<svg xmlns="http://www.w3.org/2000/svg" data-name="Layer 1" viewBox="0 0 360 74"><path fill="#e3e3f2" d="M0 0h360v64H0z"/><path fill="#2d2d5d" d="M111.54 38V23.88H107V26h2.12v12zm7.6 0a4.34 4.34 0 004-1.92 9.92 9.92 0 001.2-5.28 9.81 9.81 0 00-1.2-5.25 5.15 5.15 0 00-8 0 9.82 9.82 0 00-1.2 5.26 9.91 9.91 0 001.2 5.29 4.36 4.36 0 004 1.9zm0-2.16a2.32 2.32 0 01-2.34-1.3 9.21 9.21 0 01-.6-3.74 9 9 0 01.6-3.7 2.33 2.33 0 012.34-1.28 2.31 2.31 0 012.32 1.29 9 9 0 01.6 3.69 9.21 9.21 0 01-.6 3.74 2.3 2.3 0 01-2.32 1.34zm12.34 2.26a4.75 4.75 0 003.38-1.1 3.77 3.77 0 001.14-2.86 3.11 3.11 0 00-.83-2.29 5.24 5.24 0 00-2.29-1.25v-.1a3.19 3.19 0 002.12-1.07 3.34 3.34 0 00.75-2.23 3.68 3.68 0 00-.51-1.92 3.5 3.5 0 00-1.51-1.35 5.38 5.38 0 00-2.4-.49 5 5 0 00-3.48 1.15 4.58 4.58 0 00-1.4 3.23h2.24a2.76 2.76 0 01.84-1.83 2.52 2.52 0 011.74-.63 2.33 2.33 0 011.64.56 2 2 0 01.6 1.54c0 1.51-1.09 2.25-3.26 2.22h-.54v1.88h.54a4.69 4.69 0 012.63.62 2 2 0 01.91 1.8 2.15 2.15 0 01-.63 1.6 2.48 2.48 0 01-1.81.62 2.78 2.78 0 01-2-.71 3 3 0 01-.86-1.91h-2.26a4.75 4.75 0 001.61 3.42 5.48 5.48 0 003.64 1.14z" data-name="103"/><path fill="#2d2d5d" d="M146 29h10v2h-10z"/><path fill="#2d2d5d" d="M172.76 37.9V36h-6.7a19.86 19.86 0 003-2.29 13.14 13.14 0 002.41-2.91 6 6 0 00.95-3.12 3.92 3.92 0 00-1.17-3 4.54 4.54 0 00-3.25-1.06 4.83 4.83 0 00-3.45 1.28 5.29 5.29 0 00-1.49 3.7h2.22a4 4 0 01.7-2.25 2.19 2.19 0 011.84-.79 2.08 2.08 0 011.71.64 2.64 2.64 0 01.53 1.72 6.14 6.14 0 01-1.95 3.95 30.1 30.1 0 01-5.11 4.35v1.68zm7 .14a4.34 4.34 0 004-1.92 9.92 9.92 0 001.2-5.28 9.81 9.81 0 00-1.2-5.25 5.15 5.15 0 00-8 0 9.82 9.82 0 00-1.2 5.26 9.91 9.91 0 001.2 5.29 4.36 4.36 0 003.98 1.86zm0-2.16a2.32 2.32 0 01-2.34-1.3 9.21 9.21 0 01-.6-3.74 9 9 0 01.6-3.7 2.33 2.33 0 012.34-1.28 2.31 2.31 0 012.32 1.29 9 9 0 01.6 3.69 9.21 9.21 0 01-.6 3.74 2.3 2.3 0 01-2.34 1.3zm12.34 2.26a4.75 4.75 0 003.36-1.14 3.77 3.77 0 001.18-2.89 3.11 3.11 0 00-.83-2.29 5.24 5.24 0 00-2.29-1.25v-.1a3.19 3.19 0 002.11-1.07 3.34 3.34 0 00.75-2.23 3.68 3.68 0 00-.51-1.92 3.5 3.5 0 00-1.51-1.35 5.38 5.38 0 00-2.4-.49 5 5 0 00-3.48 1.15 4.58 4.58 0 00-1.4 3.23h2.24a2.76 2.76 0 01.84-1.83 2.52 2.52 0 011.74-.63 2.33 2.33 0 011.64.56 2 2 0 01.6 1.54c0 1.51-1.09 2.25-3.26 2.22h-.54v1.88h.54a4.69 4.69 0 012.63.62 2 2 0 01.91 1.8 2.15 2.15 0 01-.63 1.6 2.48 2.48 0 01-1.81.62 2.78 2.78 0 01-2-.71 3 3 0 01-.86-1.91h-2.26a4.75 4.75 0 001.58 3.45 5.48 5.48 0 003.64 1.14z" data-name="203"/><path fill="#2d2d5d" d="M204 29h10v2h-10z" data-name="dash"/><path fill="#2d2d5d" d="M226 38.14a4.75 4.75 0 003.39-1.14 3.77 3.77 0 001.18-2.89 3.11 3.11 0 00-.83-2.29 5.24 5.24 0 00-2.29-1.25v-.1a3.19 3.19 0 002.11-1.07 3.34 3.34 0 00.75-2.23 3.68 3.68 0 00-.51-1.92 3.5 3.5 0 00-1.51-1.35 5.38 5.38 0 00-2.4-.49 5 5 0 00-3.48 1.15 4.58 4.58 0 00-1.4 3.23h2.24a2.76 2.76 0 01.84-1.83 2.52 2.52 0 011.74-.63 2.33 2.33 0 011.64.56 2 2 0 01.6 1.54c0 1.51-1.09 2.25-3.26 2.22h-.54v1.88h.54a4.69 4.69 0 012.63.62 2 2 0 01.91 1.8 2.15 2.15 0 01-.63 1.6 2.48 2.48 0 01-1.81.62 2.78 2.78 0 01-2-.71 3 3 0 01-.86-1.91h-2.26a4.75 4.75 0 001.58 3.45 5.48 5.48 0 003.63 1.14zm12-.1a4.34 4.34 0 004-1.92 9.92 9.92 0 001.2-5.28 9.81 9.81 0 00-1.2-5.25 5.15 5.15 0 00-8 0 9.82 9.82 0 00-1.2 5.26 9.91 9.91 0 001.2 5.29 4.36 4.36 0 004 1.86zm0-2.16a2.32 2.32 0 01-2.34-1.3 9.21 9.21 0 01-.6-3.74 9 9 0 01.6-3.7 2.33 2.33 0 012.34-1.28 2.31 2.31 0 012.32 1.29 9 9 0 01.6 3.69 9.21 9.21 0 01-.6 3.74 2.3 2.3 0 01-2.32 1.3zm12.34 2.26a4.75 4.75 0 003.39-1.14 3.77 3.77 0 001.18-2.89 3.11 3.11 0 00-.83-2.29 5.24 5.24 0 00-2.29-1.25v-.1a3.19 3.19 0 002.11-1.07 3.34 3.34 0 00.75-2.23 3.68 3.68 0 00-.51-1.92 3.5 3.5 0 00-1.51-1.35 5.38 5.38 0 00-2.4-.49 5 5 0 00-3.48 1.15 4.58 4.58 0 00-1.4 3.23h2.24a2.76 2.76 0 01.84-1.83 2.52 2.52 0 011.74-.63 2.33 2.33 0 011.64.56 2 2 0 01.6 1.54c0 1.51-1.09 2.25-3.26 2.22h-.54v1.88h.54a4.69 4.69 0 012.63.62 2 2 0 01.91 1.8 2.15 2.15 0 01-.63 1.6 2.48 2.48 0 01-1.81.62 2.78 2.78 0 01-2-.71 3 3 0 01-.86-1.91h-2.26a4.75 4.75 0 001.58 3.45 5.48 5.48 0 003.64 1.14z" data-name="303"/></svg>