<svg xmlns="http://www.w3.org/2000/svg" data-name="Layer 1" viewBox="0 0 360 73"><path fill="#e3e3f2" d="M0 0h360v64H0z"/><path fill="#2d2d5d" d="M28.4 38V23.9h-4.5V26H26v12zm7.6 0a4.26 4.26 0 004-1.9 9.91 9.91 0 001.2-5.3 9.53 9.53 0 00-1.2-5.2 4.26 4.26 0 00-4-1.9 4.26 4.26 0 00-4 1.9 9.91 9.91 0 00-1.2 5.3 9.91 9.91 0 001.2 5.3 4.41 4.41 0 004 1.8zm0-2.1a2.19 2.19 0 01-2.3-1.3 9.19 9.19 0 01-.6-3.7 9.19 9.19 0 01.6-3.7 2.27 2.27 0 012.3-1.3 2.27 2.27 0 012.3 1.3 9.19 9.19 0 01.6 3.7 8.87 8.87 0 01-.6 3.7 2.33 2.33 0 01-2.3 1.3zM47 38V23.9h-4.5V26h2.1v12z" data-name="101"/><path fill="#2d2d5d" d="M60 29h10v2H60zm41.29 7.09a20 20 0 003-2.3 12.75 12.75 0 002.4-2.9 6.62 6.62 0 001-3.1 3.77 3.77 0 00-1.2-3 3.73 3.73 0 00-2.3-1l-2 2a3 3 0 011-.2 2.06 2.06 0 011.7.6 2.31 2.31 0 01.5 1.7c0 1.2-.7 2.5-2 4a23.34 23.34 0 01-5.2 4.3v1.7H108V36h-6.7zm-12.8-2.4a11.43 11.43 0 01-.3-2.8 9.19 9.19 0 01.6-3.7 2.68 2.68 0 014.6 0 3.37 3.37 0 01.4 1.2l1.8-1.8a4.67 4.67 0 00-.5-1 5.16 5.16 0 00-8 0 9.91 9.91 0 00-1.2 5.3 11.87 11.87 0 00.8 4.6zm12-5.1a4.26 4.26 0 01.4-1.7l-1.7 1.7zm-6.9 5.6c0 .1-.1.2-.1.3a2.11 2.11 0 01-1.4 1.2l-2.2 2.2a4.87 4.87 0 001.2.1 4.26 4.26 0 004-1.9 9.68 9.68 0 001.2-4.6zm-12.4 3.8h2.4v-14.1h-4.6v2.1h2.2v12zm24.1-19.7l1.4 1.4-24 24-1.4-1.4 24-24z"/><path fill="#2d2d5d" d="M118 29h10v2h-10z" data-name="dash"/><path fill="#2d2d5d" d="M146.6 37.9V36h-6.7a20 20 0 003-2.3 12.75 12.75 0 002.4-2.9 6.62 6.62 0 001-3.1 3.77 3.77 0 00-1.2-3 4.77 4.77 0 00-3.2-1.1 4.91 4.91 0 00-3.5 1.3 5.46 5.46 0 00-1.5 3.7h2.2a4.08 4.08 0 01.7-2.2 2.2 2.2 0 011.8-.8 2.06 2.06 0 011.7.6 2.31 2.31 0 01.5 1.7c0 1.2-.7 2.5-2 4a26.56 26.56 0 01-5.2 4.4V38h10zm7 .1a4.26 4.26 0 004-1.9 9.91 9.91 0 001.2-5.3 9.53 9.53 0 00-1.2-5.2 5.16 5.16 0 00-8 0 9.91 9.91 0 00-1.2 5.3 9.91 9.91 0 001.2 5.3 4.41 4.41 0 004 1.8zm0-2.1a2.19 2.19 0 01-2.3-1.3 9.19 9.19 0 01-.6-3.7 9.19 9.19 0 01.6-3.7 2.68 2.68 0 014.6 0 9.19 9.19 0 01.6 3.7 8.87 8.87 0 01-.6 3.7 2.33 2.33 0 01-2.3 1.3zm11 2.1V23.9h-4.5V26h2.1v12z" data-name="201"/><path fill="#2d2d5d" d="M175 29h10v2h-10z" data-name="dash"/><path fill="#2d2d5d" d="M202 37.9V36h-6.7a20 20 0 003-2.3 12.75 12.75 0 002.4-2.9 6.13 6.13 0 00.9-3.1 3.77 3.77 0 00-1.2-3 4.77 4.77 0 00-3.2-1.1 4.52 4.52 0 00-3.4 1.3 5.46 5.46 0 00-1.5 3.7h2.2a4.08 4.08 0 01.7-2.2 2.2 2.2 0 011.8-.8 2.06 2.06 0 011.7.6 2.86 2.86 0 01.5 1.7 6.33 6.33 0 01-1.9 4 26.56 26.56 0 01-5.2 4.4V38h9.9zm7 .1a4.26 4.26 0 004-1.9 9.91 9.91 0 001.2-5.3 9.53 9.53 0 00-1.2-5.2 5.16 5.16 0 00-8 0 9.91 9.91 0 00-1.2 5.3 9.91 9.91 0 001.2 5.3 4.41 4.41 0 004 1.8zm0-2.1a2.19 2.19 0 01-2.3-1.3 9.19 9.19 0 01-.6-3.7 9.19 9.19 0 01.6-3.7 2.68 2.68 0 014.6 0 9.19 9.19 0 01.6 3.7 8.87 8.87 0 01-.6 3.7 2.33 2.33 0 01-2.3 1.3zm16.8 2V36h-6.7a20 20 0 003-2.3 12.75 12.75 0 002.4-2.9 6.41 6.41 0 00.9-3.1 3.77 3.77 0 00-1.2-3 5.29 5.29 0 00-6.7.2 5.46 5.46 0 00-1.5 3.7h2.2a4.08 4.08 0 01.7-2.2 2.2 2.2 0 011.8-.8 2.06 2.06 0 011.7.6 2.86 2.86 0 01.5 1.7 6.33 6.33 0 01-1.9 4 30.51 30.51 0 01-5.2 4.4V38h10z" data-name="202"/><path fill="#2d2d5d" d="M233 29h10v2h-10z" data-name="dash"/><g fill="#2d2d5d" data-name="bar"><path d="M255.09 26a2.52 2.52 0 011.7-.6 2.11 2.11 0 011.6.6 2 2 0 01.6 1.5c0 1.5-1.1 2.2-3.3 2.2h-.5v1.9h.5a4.76 4.76 0 012.6.6 2.22 2.22 0 01.6 2.9l2.3-2.3a2.07 2.07 0 00-.6-1 4.25 4.25 0 00-2.3-1.2v-.1a3.09 3.09 0 002.1-1.1 3.29 3.29 0 00.8-2.2 4.14 4.14 0 00-.5-1.9 3.42 3.42 0 00-1.5-1.4 6 6 0 00-2.4-.5 5 5 0 00-3.5 1.2 4.76 4.76 0 00-1.4 3.2h2.2a3.87 3.87 0 011-1.8zm11.4 1.69c.1-.2.1-.4.2-.6a2.26 2.26 0 011.6-1.2l2.1-2.1a5.7 5.7 0 00-1.3-.1 4.26 4.26 0 00-4 1.9 10.57 10.57 0 00-1.2 4.8zm-10.4 10.4l2.2-2.2a2.9 2.9 0 01-1.4.3 2.72 2.72 0 01-2-.7 3.1 3.1 0 01-.9-1.9h-2.3a4.78 4.78 0 001.6 3.4 5.35 5.35 0 002.8 1.1zm15.6-9.9a10.06 10.06 0 01.3 2.7 8.87 8.87 0 01-.6 3.7 2.27 2.27 0 01-2.3 1.3 2.19 2.19 0 01-2.3-1.3c-.1-.3-.2-.7-.3-1.1l-1.8 1.8c.1.3.3.6.4.9a5.16 5.16 0 008 0 9.91 9.91 0 001.2-5.3 10.81 10.81 0 00-.8-4.4zm4.3-4.3l-.5.5v1.6h2.1v12h2.4v-14.1h-4z"/><path d="M277.29 18.29l1.4 1.4-24 24-1.4-1.4 24-24z" data-name="Path"/></g><path fill="#2d2d5d" d="M290 29h10v2h-10z" data-name="dash"/><path fill="#2d2d5d" d="M312.3 38.1a5 5 0 003.4-1.1 3.7 3.7 0 001.2-2.9 3.37 3.37 0 00-.8-2.3 4.25 4.25 0 00-2.3-1.2v-.1a3.09 3.09 0 002.1-1.1 3.29 3.29 0 00.8-2.2 4.14 4.14 0 00-.5-1.9 2.78 2.78 0 00-1.5-1.3 6 6 0 00-2.4-.5 5 5 0 00-3.5 1.2 4.35 4.35 0 00-1.4 3.2h2.2a3 3 0 01.8-1.8 2.35 2.35 0 011.7-.6 2.11 2.11 0 011.6.6 2 2 0 01.6 1.5c0 1.5-1.1 2.2-3.3 2.2h-.5v1.9h.5a4.76 4.76 0 012.6.6 2 2 0 01.9 1.8 2.11 2.11 0 01-.6 1.6 2.44 2.44 0 01-1.8.6 2.72 2.72 0 01-2-.7 3.1 3.1 0 01-.9-1.9h-2.3a4.78 4.78 0 001.6 3.4 6.74 6.74 0 003.8 1zm12-.1a4.26 4.26 0 004-1.9 9.91 9.91 0 001.2-5.3 9.53 9.53 0 00-1.2-5.2 5.16 5.16 0 00-8 0 9.91 9.91 0 00-1.2 5.3 9.91 9.91 0 001.2 5.3 4.41 4.41 0 004 1.8zm0-2.1a2.19 2.19 0 01-2.3-1.3 9.19 9.19 0 01-.6-3.7 9.19 9.19 0 01.6-3.7 2.68 2.68 0 014.6 0 9.19 9.19 0 01.6 3.7 8.87 8.87 0 01-.6 3.7 2.42 2.42 0 01-2.3 1.3zm16.8 2V36h-6.7a20 20 0 003-2.3 12.75 12.75 0 002.4-2.9 6.41 6.41 0 00.9-3.1 3.77 3.77 0 00-1.2-3 4.77 4.77 0 00-3.2-1.1 4.52 4.52 0 00-3.4 1.3 5.46 5.46 0 00-1.5 3.7h2.2a4.08 4.08 0 01.7-2.2 2.2 2.2 0 011.8-.8 2.06 2.06 0 011.7.6 2.86 2.86 0 01.5 1.7 6 6 0 01-2 4 30.51 30.51 0 01-5.2 4.4V38h10z" data-name="302"/><g fill="#2d2d5d"><path d="M97 44.2l22.4 9.9a1 1 0 01.6.9v18H68V55a1 1 0 01.5-.8l.1-.1L91 44.2a3.55 3.55 0 00.2 1L69 55h50l-22.3-9.8a1.69 1.69 0 00.3-1zM119 56H69v16h50z"/><path d="M94 42a2 2 0 11-2 2 2 2 0 012-2z" data-name="Path"/><path d="M73.4 65.2l1.6-5.3h1.6L74.2 67h-1.5l-2.5-7.1h1.6zm9.2-1.3h-2.8v1.9h3.3V67h-4.8v-7.1h4.8v1.2h-3.3v1.7h2.8zm8.2 3.1h-1.5l-2.9-4.7V67H85v-7.1h1.5l2.9 4.7v-4.7h1.5V67zm2.2 0v-7.1h2.2a3.29 3.29 0 011.7.4 3.17 3.17 0 011.6 3v.3a3.66 3.66 0 01-.4 1.8 4.26 4.26 0 01-1.1 1.2 3.29 3.29 0 01-1.7.4zm1.5-5.9v4.7h.7a1.49 1.49 0 001.3-.6 2.54 2.54 0 00.5-1.6v-.4a2.36 2.36 0 00-.4-1.6 1.49 1.49 0 00-1.3-.6h-.8zm7.6 5.9h-1.5v-7.1h1.5zm2.3 0v-7.1h2.2a3.29 3.29 0 011.7.4 3.17 3.17 0 011.6 3v.3a3.66 3.66 0 01-.4 1.8 4.26 4.26 0 01-1.1 1.2 3.29 3.29 0 01-1.7.4zm1.5-5.9v4.7h.7a1.49 1.49 0 001.3-.6 2.54 2.54 0 00.5-1.6v-.4a2.36 2.36 0 00-.4-1.6 1.49 1.49 0 00-1.3-.6h-.8zm11.9 2.5a3.42 3.42 0 01-.4 1.8 2.54 2.54 0 01-1.1 1.2 3.4 3.4 0 01-3.2 0 3.18 3.18 0 01-1.1-1.2 3.42 3.42 0 01-.4-1.8v-.4a3.42 3.42 0 01.4-1.8 3.18 3.18 0 011.1-1.2 3.4 3.4 0 013.2 0 3.18 3.18 0 011.1 1.2 3.42 3.42 0 01.4 1.8zm-1.5-.3a2.86 2.86 0 00-.4-1.7 1.25 1.25 0 00-1.1-.6 1.15 1.15 0 00-1.1.6 2.67 2.67 0 00-.4 1.7v.3a2.86 2.86 0 00.4 1.7 1.43 1.43 0 001.2.6 1.15 1.15 0 001.1-.6 2.67 2.67 0 00.4-1.7v-.3z"/></g><g fill="#2d2d5d" data-name="icon-sold"><path d="M269 44.2l22.4 9.9a1 1 0 01.6.9v18h-52V55a1 1 0 01.5-.8l.1-.1 22.4-9.9a3.55 3.55 0 00.2 1L241 55h50l-22.3-9.8a1.69 1.69 0 00.3-1zM291 56h-50v16h50z" data-name="Combined-Shape"/><path d="M266 42a2 2 0 11-2 2 2 2 0 012-2z" data-name="Path"/><path d="M245.4 65.2l1.6-5.3h1.6l-2.4 7.1h-1.5l-2.5-7.1h1.6zm9.2-1.3h-2.8v1.9h3.3V67h-4.8v-7.1h4.8v1.2h-3.3v1.7h2.8zm8.2 3.1h-1.5l-2.9-4.7V67H257v-7.1h1.5l2.9 4.7v-4.7h1.5V67zm2.2 0v-7.1h2.2a3.29 3.29 0 011.7.4 3.17 3.17 0 011.6 3v.3a3.66 3.66 0 01-.4 1.8 4.26 4.26 0 01-1.1 1.2 3.29 3.29 0 01-1.7.4zm1.5-5.9v4.7h.7a1.49 1.49 0 001.3-.6 2.54 2.54 0 00.5-1.6v-.4a2.36 2.36 0 00-.4-1.6 1.49 1.49 0 00-1.3-.6h-.8zm7.6 5.9h-1.5v-7.1h1.5zm2.4 0v-7.1h2.2a3.29 3.29 0 011.7.4 3.17 3.17 0 011.6 3v.3a3.66 3.66 0 01-.4 1.8 4.26 4.26 0 01-1.1 1.2 3.29 3.29 0 01-1.7.4zm1.4-5.9v4.7h.7a1.49 1.49 0 001.3-.6 2.54 2.54 0 00.5-1.6v-.4a2.36 2.36 0 00-.4-1.6 1.49 1.49 0 00-1.3-.6h-.8zm11.9 2.5a3.42 3.42 0 01-.4 1.8 2.54 2.54 0 01-1.1 1.2 3.4 3.4 0 01-3.2 0 3.18 3.18 0 01-1.1-1.2 3.42 3.42 0 01-.4-1.8v-.4a3.42 3.42 0 01.4-1.8 3.18 3.18 0 011.1-1.2 3.4 3.4 0 013.2 0 3.18 3.18 0 011.1 1.2 3.42 3.42 0 01.4 1.8zm-1.5-.3a2.86 2.86 0 00-.4-1.7 1.25 1.25 0 00-1.1-.6 1.15 1.15 0 00-1.1.6 2.67 2.67 0 00-.4 1.7v.3a2.86 2.86 0 00.4 1.7 1.43 1.43 0 001.2.6 1.15 1.15 0 001.1-.6 2.67 2.67 0 00.4-1.7v-.3z"/></g></svg>